<svg width="15" height="20" viewBox="0 0 15 20" fill="none" xmlns="http://www.w3.org/2000/svg">
<path d="M9.375 0H1.875C0.84375 0 0 0.9 0 2V18C0 19.1 0.84375 20 1.875 20H13.125C14.1562 20 15 19.1 15 18V6L9.375 0ZM7.5 8C8.53125 8 9.375 8.9 9.375 10C9.375 11.1 8.53125 12 7.5 12C6.46875 12 5.625 11.1 5.625 10C5.625 8.9 6.46875 8 7.5 8ZM11.25 16H3.75V15.43C3.75 14.62 4.2 13.9 4.89375 13.58C5.69063 13.21 6.57188 13 7.5 13C8.42813 13 9.30937 13.21 10.1062 13.58C10.8 13.9 11.25 14.62 11.25 15.43V16Z" fill="#fff"/>
</svg>
