<svg width="22" height="19" viewBox="0 0 22 19" fill="none" xmlns="http://www.w3.org/2000/svg">
<path d="M8.43671 0C7.31793 0 6.24498 0.44484 5.45388 1.23666C4.66279 2.02848 4.21835 3.10242 4.21835 4.22222C4.21835 5.34203 4.66279 6.41596 5.45388 7.20778C6.24498 7.9996 7.31793 8.44444 8.43671 8.44444C9.55549 8.44444 10.6284 7.9996 11.4195 7.20778C12.2106 6.41596 12.6551 5.34203 12.6551 4.22222C12.6551 3.10242 12.2106 2.02848 11.4195 1.23666C10.6284 0.44484 9.55549 0 8.43671 0ZM15.8188 8.44444C15.6817 8.44444 15.5657 8.53944 15.5446 8.66611L15.3443 10.0594C15.0279 10.1967 14.7221 10.3656 14.4479 10.5556L13.1402 10.0278C13.0242 10.0278 12.8871 10.0278 12.8133 10.165L11.7587 11.9911C11.6954 12.1072 11.7165 12.2444 11.8219 12.3289L12.9398 13.1944C12.9187 13.3739 12.9082 13.5428 12.9082 13.7222C12.9082 13.9017 12.9187 14.0706 12.9398 14.25L11.8219 15.1156C11.727 15.2 11.6954 15.3372 11.7587 15.4533L12.8133 17.2794C12.8765 17.4167 13.0136 17.4167 13.1402 17.4167L14.4479 16.8889C14.7221 17.0789 15.0173 17.2583 15.3443 17.385L15.5446 18.7783C15.5657 18.905 15.6712 19 15.8188 19H17.928C18.044 19 18.16 18.905 18.1811 18.7783L18.3815 17.385C18.6979 17.2478 18.9826 17.0789 19.2673 16.8889L20.5645 17.4167C20.7016 17.4167 20.8387 17.4167 20.9125 17.2794L21.9671 15.4533C22.0304 15.3372 21.9987 15.2 21.9038 15.1156L20.7754 14.25C20.7965 14.0706 20.8176 13.9017 20.8176 13.7222C20.8176 13.5428 20.807 13.3739 20.7754 13.1944L21.8933 12.3289C21.9882 12.2444 22.0198 12.1072 21.9565 11.9911L20.9019 10.165C20.8387 10.0278 20.7016 10.0278 20.5645 10.0278L19.2673 10.5556C18.9826 10.3656 18.6979 10.1861 18.3709 10.0594L18.1706 8.66611C18.16 8.53944 18.044 8.44444 17.928 8.44444H15.8188ZM8.43671 10.5556C3.77543 10.5556 0 12.445 0 14.7778V16.8889H10.2084C9.73775 15.8996 9.4928 14.8179 9.4913 13.7222C9.49344 12.6617 9.72363 11.6141 10.1662 10.6506C9.6073 10.5872 9.02728 10.5556 8.43671 10.5556ZM16.8734 12.1389C17.7487 12.1389 18.4553 12.8461 18.4553 13.7222C18.4553 14.5983 17.7487 15.3056 16.8734 15.3056C15.9876 15.3056 15.2915 14.5983 15.2915 13.7222C15.2915 12.8461 15.9981 12.1389 16.8734 12.1389Z" fill="#3C3C3C"/>
</svg>
